<svg width="29" height="20" viewBox="0 0 29 20" fill="none" xmlns="http://www.w3.org/2000/svg">
<path d="M26.5846 8.33333V16.6667C26.5846 16.8877 26.4573 17.0996 26.2307 17.2559C26.0041 17.4122 25.6968 17.5 25.3763 17.5H3.6263C3.30583 17.5 2.99849 17.4122 2.77188 17.2559C2.54527 17.0996 2.41797 16.8877 2.41797 16.6667V8.33333H26.5846ZM26.5846 6.66667H2.41797V3.33333C2.41797 3.11232 2.54527 2.90036 2.77188 2.74408C2.99849 2.5878 3.30583 2.5 3.6263 2.5H25.3763C25.6968 2.5 26.0041 2.5878 26.2307 2.74408C26.4573 2.90036 26.5846 3.11232 26.5846 3.33333V6.66667ZM18.1263 13.3333V15H22.9596V13.3333H18.1263Z" fill="#B6B4B9"/>
</svg>
