<svg width="16" height="17" viewBox="0 0 16 17" fill="none" xmlns="http://www.w3.org/2000/svg">
<path d="M8.24536 1.93331L14.2454 4.33329C14.4787 4.42663 14.6654 4.70662 14.6654 4.95329V7.16663C14.6654 7.53329 14.3654 7.83329 13.9987 7.83329H1.9987C1.63203 7.83329 1.33203 7.53329 1.33203 7.16663V4.95329C1.33203 4.70662 1.5187 4.42663 1.75203 4.33329L7.75203 1.93331C7.88537 1.87998 8.11203 1.87998 8.24536 1.93331Z" stroke="#0D0716" stroke-width="1.2" stroke-miterlimit="10" stroke-linecap="round" stroke-linejoin="round"/>
<path d="M14.6654 15.1667H1.33203V13.1667C1.33203 12.8 1.63203 12.5 1.9987 12.5H13.9987C14.3654 12.5 14.6654 12.8 14.6654 13.1667V15.1667Z" stroke="#0D0716" stroke-width="1.2" stroke-miterlimit="10" stroke-linecap="round" stroke-linejoin="round"/>
<path d="M2.66797 12.4999V7.83325" stroke="#0D0716" stroke-width="1.2" stroke-miterlimit="10" stroke-linecap="round" stroke-linejoin="round"/>
<path d="M5.33203 12.4999V7.83325" stroke="#0D0716" stroke-width="1.2" stroke-miterlimit="10" stroke-linecap="round" stroke-linejoin="round"/>
<path d="M8 12.4999V7.83325" stroke="#0D0716" stroke-width="1.2" stroke-miterlimit="10" stroke-linecap="round" stroke-linejoin="round"/>
<path d="M10.668 12.4999V7.83325" stroke="#0D0716" stroke-width="1.2" stroke-miterlimit="10" stroke-linecap="round" stroke-linejoin="round"/>
<path d="M13.332 12.4999V7.83325" stroke="#0D0716" stroke-width="1.2" stroke-miterlimit="10" stroke-linecap="round" stroke-linejoin="round"/>
<path d="M0.667969 15.1667H15.3346" stroke="#0D0716" stroke-width="1.2" stroke-miterlimit="10" stroke-linecap="round" stroke-linejoin="round"/>
<path d="M8 6.16675C8.55228 6.16675 9 5.71903 9 5.16675C9 4.61446 8.55228 4.16675 8 4.16675C7.44772 4.16675 7 4.61446 7 5.16675C7 5.71903 7.44772 6.16675 8 6.16675Z" stroke="#0D0716" stroke-width="1.2" stroke-miterlimit="10" stroke-linecap="round" stroke-linejoin="round"/>
</svg>
