<svg width="41" height="40" viewBox="0 0 41 40" fill="none" xmlns="http://www.w3.org/2000/svg">
<ellipse cx="19.5" cy="19" rx="15" ry="15" fill="white"/>
<path d="M20.4987 36.6666C11.2981 36.6565 3.84214 29.2005 3.83203 20V19.6666C4.01525 10.5075 11.5563 3.21321 20.7165 3.33475C29.8766 3.45629 37.2215 10.9481 37.1617 20.1088C37.1018 29.2696 29.6596 36.6648 20.4987 36.6666ZM14.0248 20.4882C13.3749 19.8408 12.3235 19.8418 11.6748 20.4905C11.0253 21.14 11.0253 22.1932 11.6748 22.8428L15.3664 26.5343C16.36 27.5279 17.9708 27.5279 18.9643 26.5343L29.3237 16.175C29.9733 15.5253 29.9752 14.4727 29.3279 13.8208C28.6773 13.1656 27.6182 13.1638 26.9654 13.8166L17.5493 23.2327C17.3371 23.4449 16.9933 23.4452 16.7807 23.2334L14.0248 20.4882Z" fill="#0D0716"/>
</svg>
