<svg width="45" height="46" viewBox="0 0 45 46" fill="none" xmlns="http://www.w3.org/2000/svg">
<path d="M22.5001 45.596C10.1645 45.5825 0.167844 35.5858 0.154297 23.2502V22.8033C0.399948 10.5232 10.5107 0.743349 22.7921 0.906304C35.0736 1.06926 44.9213 11.1139 44.841 23.3962C44.7608 35.6785 34.7827 45.5935 22.5001 45.596ZM13.8203 23.9048C12.9489 23.0368 11.5392 23.0381 10.6695 23.9078V23.9078C9.79863 24.7788 9.79863 26.1908 10.6695 27.0617L15.619 32.0112C16.9511 33.3432 19.1108 33.3432 20.4429 32.0112L34.3322 18.1218C35.2032 17.2508 35.2057 15.8395 34.3378 14.9655V14.9655C33.4656 14.0871 32.0456 14.0845 31.1703 14.9599L18.5457 27.5845C18.2613 27.8689 17.8002 27.8694 17.5152 27.5855L13.8203 23.9048Z" fill="#54C68F"/>
</svg>
