<svg width="35" height="34" viewBox="0 0 35 34" fill="none" xmlns="http://www.w3.org/2000/svg">
<path d="M17.4936 33.6667C13.0734 33.6707 8.8332 31.9161 5.7077 28.7898C2.58219 25.6635 0.828061 21.4222 0.832038 17.001V16.6677C0.968309 9.98845 5.07706 4.03536 11.2728 1.54035C17.4684 -0.954663 24.5548 0.490131 29.2799 5.2117C34.0492 9.97822 35.4766 17.1499 32.896 23.38C30.3155 29.6101 24.2356 33.6707 17.4936 33.6667ZM17.4936 19.3509L21.8089 23.6673L24.1582 21.3174L19.8428 17.001L24.1582 12.6846L21.8089 10.3347L17.4936 14.6511L13.1782 10.3347L10.829 12.6846L15.1443 17.001L10.829 21.3174L13.1782 23.6673L17.4936 19.3525V19.3509Z" fill="#D62020"/>
</svg>
