<svg width="20" height="20" viewBox="0 0 20 20" fill="none" xmlns="http://www.w3.org/2000/svg">
<rect x="5" y="5.83333" width="10" height="9.16667" fill="white"/>
<path d="M9.99727 18.3333C7.78721 18.3353 5.66709 17.458 4.10434 15.8949C2.54158 14.3318 1.66452 12.2111 1.66651 10.0005V9.83383C1.73464 6.49421 3.78902 3.51766 6.88687 2.27016C9.98471 1.02265 13.5279 1.74505 15.8905 4.10584C18.2751 6.4891 18.9888 10.0749 17.6985 13.19C16.4082 16.3051 13.3683 18.3353 9.99727 18.3333ZM9.99728 11.1754L12.1549 13.3336L13.3296 12.1587L11.1719 10.0005L13.3296 7.84228L12.1549 6.66735L9.99728 8.82556L7.83961 6.66735L6.66497 7.84228L8.82264 10.0005L6.66497 12.1587L7.83961 13.3336L9.99728 11.1763V11.1754Z" fill="#8F1515"/>
</svg>
