<svg width="14" height="14" viewBox="0 0 14 14" fill="none" xmlns="http://www.w3.org/2000/svg">
<path d="M9.33464 7.52502V9.97502C9.33464 12.0167 8.51797 12.8334 6.4763 12.8334H4.0263C1.98464 12.8334 1.16797 12.0167 1.16797 9.97502V7.52502C1.16797 5.48335 1.98464 4.66669 4.0263 4.66669H6.4763C8.51797 4.66669 9.33464 5.48335 9.33464 7.52502Z" stroke="#0D0716" stroke-width="1.5" stroke-linecap="round" stroke-linejoin="round"/>
<path d="M12.8346 4.02502V6.47502C12.8346 8.51669 12.018 9.33335 9.9763 9.33335H9.33464V7.52502C9.33464 5.48335 8.51797 4.66669 6.4763 4.66669H4.66797V4.02502C4.66797 1.98335 5.48464 1.16669 7.5263 1.16669H9.9763C12.018 1.16669 12.8346 1.98335 12.8346 4.02502Z" stroke="#0D0716" stroke-width="1.5" stroke-linecap="round" stroke-linejoin="round"/>
</svg>
