<svg width="19" height="18" viewBox="0 0 19 18" fill="none" xmlns="http://www.w3.org/2000/svg">
<path d="M11 6H3.5C2.67275 6 2 6.67275 2 7.5V15C2 15.8272 2.67275 16.5 3.5 16.5H11C11.8272 16.5 12.5 15.8272 12.5 15V7.5C12.5 6.67275 11.8272 6 11 6Z" fill="#F4F4FF"/>
<path d="M15.5 1.5H8C7.60218 1.5 7.22064 1.65804 6.93934 1.93934C6.65804 2.22064 6.5 2.60218 6.5 3V4.5H12.5C12.8978 4.5 13.2794 4.65804 13.5607 4.93934C13.842 5.22064 14 5.60218 14 6V12H15.5C15.8978 12 16.2794 11.842 16.5607 11.5607C16.842 11.2794 17 10.8978 17 10.5V3C17 2.60218 16.842 2.22064 16.5607 1.93934C16.2794 1.65804 15.8978 1.5 15.5 1.5Z" fill="#F4F4FF"/>
</svg>
