<svg width="18" height="18" viewBox="0 0 18 18" fill="none" xmlns="http://www.w3.org/2000/svg">
<path d="M9.00008 17.3333C4.3998 17.3283 0.6718 13.6003 0.666748 9.00001V8.83335C0.758358 4.25379 4.5289 0.606643 9.10898 0.667413C13.689 0.728183 17.3615 4.47408 17.3316 9.05446C17.3016 13.6348 13.5806 17.3324 9.00008 17.3333ZM5.76315 9.24414C5.43818 8.92043 4.91249 8.92094 4.58815 9.24528C4.26337 9.57006 4.26337 10.0966 4.58815 10.4214L6.43395 12.2672C6.93071 12.764 7.73612 12.764 8.23289 12.2672L13.4126 7.08751C13.7374 6.76271 13.7383 6.23639 13.4147 5.91044C13.0894 5.58285 12.5598 5.58192 12.2334 5.90835L7.52537 10.6164C7.4193 10.7225 7.24737 10.7226 7.14109 10.6168L5.76315 9.24414Z" fill="#217D50"/>
</svg>
