<svg width="12" height="12" viewBox="0 0 12 12" fill="none" xmlns="http://www.w3.org/2000/svg">
<path d="M6 9C5.72386 9 5.5 8.77614 5.5 8.5L5.5 5C5.5 4.72386 5.72386 4.5 6 4.5C6.27614 4.5 6.5 4.72386 6.5 5L6.5 8.5C6.5 8.77614 6.27614 9 6 9Z" fill="#CCCCE8"/>
<path d="M6.625 3.625C6.625 3.27982 6.34518 3 6 3C5.65482 3 5.375 3.27982 5.375 3.625C5.375 3.97018 5.65482 4.25 6 4.25C6.34518 4.25 6.625 3.97018 6.625 3.625Z" fill="#CCCCE8"/>
<path fill-rule="evenodd" clip-rule="evenodd" d="M11 6C11 8.76142 8.76142 11 6 11C3.23858 11 1 8.76142 1 6C1 3.23858 3.23858 0.999999 6 1C8.76142 1 11 3.23858 11 6ZM6 10C8.20914 10 10 8.20914 10 6C10 3.79086 8.20914 2 6 2C3.79086 2 2 3.79086 2 6C2 8.20914 3.79086 10 6 10Z" fill="#CCCCE8"/>
</svg>
