<svg width="27" height="20" viewBox="0 0 27 20" fill="none" xmlns="http://www.w3.org/2000/svg">
<path d="M16.1048 4.75891H9.77734V15.2416H16.1048V4.75891Z" fill="#FF5F00"/>
<path d="M10.1784 9.99985C10.1774 8.99029 10.4256 7.99376 10.9041 7.08569C11.3826 6.17762 12.079 5.38182 12.9404 4.75852C11.8736 3.9855 10.5925 3.50476 9.24333 3.37127C7.89421 3.23777 6.53156 3.4569 5.31113 4.00361C4.09071 4.55032 3.06175 5.40256 2.34187 6.46291C1.62199 7.52326 1.24023 8.74893 1.24023 9.99985C1.24023 11.2508 1.62199 12.4764 2.34187 13.5368C3.06175 14.5971 4.09071 15.4494 5.31113 15.9961C6.53156 16.5428 7.89421 16.7619 9.24333 16.6284C10.5925 16.4949 11.8736 16.0142 12.9404 15.2412C12.079 14.6179 11.3826 13.8221 10.9041 12.914C10.4256 12.0059 10.1775 11.0094 10.1784 9.99985Z" fill="#EB001B"/>
<path d="M24.6412 9.99991C24.6413 11.2508 24.2596 12.4765 23.5397 13.5368C22.8199 14.5972 21.791 15.4494 20.5706 15.9961C19.3502 16.5428 17.9875 16.762 16.6384 16.6285C15.2893 16.495 14.0082 16.0143 12.9414 15.2412C13.8021 14.6173 14.4979 13.8214 14.9763 12.9134C15.4548 12.0055 15.7034 11.0093 15.7034 9.99991C15.7034 8.99051 15.4548 7.99429 14.9763 7.08636C14.4979 6.17844 13.8021 5.38251 12.9414 4.75858C14.0082 3.98555 15.2893 3.50482 16.6384 3.37133C17.9875 3.23783 19.3502 3.45697 20.5706 4.00369C21.791 4.55041 22.8199 5.40265 23.5397 6.46299C24.2596 7.52334 24.6413 8.74901 24.6412 9.99991Z" fill="#F79E1B"/>
<path d="M23.9499 14.1325V13.9169H24.0437V13.8729H23.8047V13.9169H23.8986V14.1325H23.9499ZM24.414 14.1325V13.8725H24.3407L24.2564 14.0513L24.1721 13.8725H24.0988V14.1325H24.1505V13.9364L24.2296 14.1054H24.2832L24.3623 13.9359V14.1325H24.414Z" fill="#F79E1B"/>
</svg>
