<svg width="24" height="24" viewBox="0 0 24 24" fill="none" xmlns="http://www.w3.org/2000/svg">
<path d="M13.7499 9.99996H15.2499C15.6639 9.99996 15.9999 9.66398 15.9999 9.24998C15.9999 8.92756 15.7936 8.65819 15.5079 8.55259L18.78 5.28048C19.0733 4.98718 19.0733 4.51328 18.78 4.21997C18.4867 3.92667 18.0128 3.92668 17.7195 4.21997L14.4474 7.49209C14.3417 7.20633 14.0724 7.00011 13.75 7.00011C13.336 7.00011 13 7.33609 13 7.75008V9.25003C13 9.66402 13.3359 9.99996 13.7499 9.99996Z" fill="#9E9BA1"/>
<path fill-rule="evenodd" clip-rule="evenodd" d="M23.0999 13.6729C23.0999 13.3565 22.8534 13.1001 22.5492 13.1001H11.6507C11.3465 13.1001 11.0999 13.3565 11.0999 13.6729V14.883H23.0999V16.0715H11.0999V20.5273C11.0999 20.8437 11.3465 21.1001 11.6507 21.1001H22.5492C22.8534 21.1001 23.0999 20.8437 23.0999 20.5273V13.6729ZM12.5285 18.4487C12.3707 18.4487 12.2428 18.5817 12.2428 18.7458V19.3401C12.2428 19.5042 12.3707 19.6372 12.5285 19.6372H13.0999C13.2577 19.6372 13.3856 19.5042 13.3856 19.3401V18.7458C13.3856 18.5817 13.2577 18.4487 13.0999 18.4487H12.5285Z" fill="#9E9BA1"/>
<path d="M7.88262 3.26172C8.86089 3.26172 9.74721 3.65584 10.3818 4.37154C11.0242 5.09609 11.3372 6.07136 11.2632 7.11714C11.1161 9.19882 9.6021 10.8922 7.88262 10.8922C6.16315 10.8922 4.6465 9.19848 4.50172 7.11645C4.42867 6.06114 4.73976 5.08383 5.37825 4.36473C6.00989 3.65346 6.89914 3.26172 7.88262 3.26172Z" fill="#9E9BA1"/>
<path d="M1.70806 18.4224C1.84456 18.4904 1.99335 18.5246 2.14358 18.5225H10.0999V13.6C10.0999 13.0621 10.3831 12.5903 10.8085 12.3255C9.90234 11.9434 8.90107 11.74 7.88256 11.74C6.32293 11.74 4.80373 12.2165 3.60441 13.0824C2.25445 14.0577 1.39556 15.4471 1.12035 17.101C1.05709 17.4801 1.14252 17.8549 1.35447 18.1293C1.45076 18.2543 1.57156 18.3544 1.70806 18.4224Z" fill="#9E9BA1"/>
</svg>
