<svg width="24" height="24" viewBox="0 0 24 24" fill="none" xmlns="http://www.w3.org/2000/svg">
<path d="M20.0141 10.6479H3.98587C3.44523 10.6479 3 11.055 3 11.5493V20.0986C3 20.5929 3.44523 21 3.98587 21H20.0141C20.5548 21 21 20.5929 21 20.0986V11.5493C21 11.055 20.5548 10.6479 20.0141 10.6479ZM19.6007 18.0049C18.6466 18.1794 17.8834 18.8482 17.7244 19.7206H6.30742C6.11661 18.8482 5.38516 18.1503 4.4311 18.0049V13.643C5.38516 13.4685 6.14841 12.7997 6.30742 11.9273H17.7244C17.9152 12.7997 18.6466 13.4976 19.6007 13.643V18.0049Z" fill="#9E9BA1"/>
<path d="M6.23733 14.9998C5.83133 14.9998 5.51233 15.3196 5.51233 15.7267C5.51233 16.1338 5.83133 16.4537 6.23733 16.4537C6.64333 16.4537 6.96233 16.1338 6.96233 15.7267C6.96233 15.3196 6.64333 14.9998 6.23733 14.9998Z" fill="#9E9BA1"/>
<path d="M17.6216 15C17.2161 15 16.8975 15.3198 16.8975 15.7269C16.8975 16.1341 17.2161 16.4539 17.6216 16.4539C18.0271 16.4539 18.3458 16.1341 18.3458 15.7269C18.3747 15.3198 18.0271 15 17.6216 15Z" fill="#9E9BA1"/>
<path d="M11.9964 13C10.3184 13 8.99994 14.32 8.99994 16C8.99994 17.68 10.3184 19 11.9964 19C13.6745 19 14.9929 17.68 14.9929 16C15.1128 14.32 13.6745 13 11.9964 13Z" fill="#9E9BA1"/>
<path d="M15.0212 9.19386C15.212 9.39741 15.5618 9.39741 15.7526 9.19386L17.9152 6.83845C18.1696 6.54766 17.947 6.11147 17.5336 6.11147H16.4841V3.43619C16.4841 3.17447 16.2615 3 16.007 3H14.8304C14.5442 3 14.3533 3.20355 14.3533 3.43619V6.11147H13.3039C12.8904 6.11147 12.6678 6.54766 12.9222 6.83845L15.0212 9.19386Z" fill="#9E9BA1"/>
<path d="M8.24738 9.19386C8.43819 9.39741 8.78802 9.39741 8.97883 9.19386L11.1414 6.83845C11.3958 6.54766 11.1732 6.11147 10.7597 6.11147H9.71028V3.43619C9.71028 3.17447 9.48766 3 9.23325 3H8.05657C7.77035 3 7.57954 3.20355 7.57954 3.43619V6.11147H6.53007C6.11664 6.11147 5.89402 6.54766 6.14844 6.83845L8.24738 9.19386Z" fill="#9E9BA1"/>
</svg>
