<svg width="25" height="24" viewBox="0 0 25 24" fill="none" xmlns="http://www.w3.org/2000/svg">
<path d="M21 13.994H16.7L17.43 10.006H21C21.2652 10.006 21.5196 9.90099 21.7071 9.71402C21.8946 9.52705 22 9.27346 22 9.00905C22 8.74463 21.8946 8.49104 21.7071 8.30407C21.5196 8.1171 21.2652 8.01206 21 8.01206H17.79L18.48 4.21355C18.5073 4.08026 18.5069 3.94281 18.4789 3.80968C18.4509 3.67654 18.3958 3.55052 18.3171 3.43939C18.2385 3.32825 18.1378 3.23434 18.0213 3.16345C17.9049 3.09255 17.7751 3.04616 17.64 3.02714C17.5057 2.99523 17.3662 2.99141 17.2303 3.01592C17.0944 3.04043 16.965 3.09273 16.8504 3.16954C16.7358 3.24634 16.6384 3.34598 16.5643 3.46217C16.4902 3.57837 16.4411 3.7086 16.42 3.84467L15.67 8.01206H11.79L12.48 4.21355C12.5073 4.08026 12.5069 3.94281 12.4789 3.80968C12.4509 3.67654 12.3958 3.55052 12.3171 3.43939C12.2384 3.32825 12.1378 3.23434 12.0213 3.16345C11.9049 3.09255 11.7751 3.04616 11.64 3.02714C11.5057 2.99523 11.3662 2.99141 11.2303 3.01592C11.0944 3.04043 10.965 3.09273 10.8504 3.16954C10.7358 3.24634 10.6384 3.34598 10.5643 3.46217C10.4902 3.57837 10.4411 3.7086 10.42 3.84467L9.67 8.01206H5C4.73478 8.01206 4.48043 8.1171 4.29289 8.30407C4.10536 8.49104 4 8.74463 4 9.00905C4 9.27346 4.10536 9.52705 4.29289 9.71402C4.48043 9.90099 4.73478 10.006 5 10.006H9.3L8.57 13.994H5C4.73478 13.994 4.48043 14.099 4.29289 14.286C4.10536 14.4729 4 14.7265 4 14.991C4 15.2554 4.10536 15.509 4.29289 15.6959C4.48043 15.8829 4.73478 15.9879 5 15.9879H8.21L7.52 19.7864C7.49273 19.9197 7.49312 20.0572 7.52113 20.1903C7.54914 20.3235 7.60418 20.4495 7.68286 20.5606C7.76155 20.6718 7.86222 20.7657 7.97867 20.8366C8.09512 20.9075 8.22489 20.9538 8.36 20.9729C8.49434 21.0048 8.63385 21.0086 8.76974 20.9841C8.90563 20.9596 9.03496 20.9073 9.14958 20.8305C9.26419 20.7537 9.36161 20.654 9.43569 20.5378C9.50976 20.4216 9.5589 20.2914 9.58 20.1553L10.33 15.9879H14.21L13.52 19.7864C13.4927 19.9197 13.4931 20.0572 13.5211 20.1903C13.5491 20.3235 13.6042 20.4495 13.6829 20.5606C13.7616 20.6718 13.8622 20.7657 13.9787 20.8366C14.0951 20.9075 14.2249 20.9538 14.36 20.9729C14.4943 21.0048 14.6338 21.0086 14.7697 20.9841C14.9056 20.9596 15.035 20.9073 15.1496 20.8305C15.2642 20.7537 15.3616 20.654 15.4357 20.5378C15.5098 20.4216 15.5589 20.2914 15.58 20.1553L16.33 15.9879H21C21.2652 15.9879 21.5196 15.8829 21.7071 15.6959C21.8946 15.509 22 15.2554 22 14.991C22 14.7265 21.8946 14.4729 21.7071 14.286C21.5196 14.099 21.2652 13.994 21 13.994ZM10.7 13.994L11.43 10.006H15.3L14.57 13.994H10.7Z" fill="#9E9BA1"/>
</svg>
