<svg width="31" height="31" viewBox="0 0 31 31" fill="none" xmlns="http://www.w3.org/2000/svg">
<path d="M25.8333 18.0755H20.2792L21.2221 12.9245H25.8333C26.1759 12.9245 26.5044 12.7888 26.7467 12.5473C26.9889 12.3058 27.125 11.9782 27.125 11.6367C27.125 11.2951 26.9889 10.9676 26.7467 10.7261C26.5044 10.4846 26.1759 10.3489 25.8333 10.3489H21.6871L22.5783 5.4425C22.6136 5.27034 22.6131 5.0928 22.5769 4.92083C22.5407 4.74886 22.4696 4.58609 22.368 4.44254C22.2663 4.29899 22.1363 4.17769 21.9859 4.08612C21.8355 3.99454 21.6678 3.93463 21.4933 3.91006C21.3198 3.86884 21.1396 3.86391 20.9641 3.89557C20.7886 3.92722 20.6215 3.99478 20.4735 4.09398C20.3254 4.19319 20.1996 4.32189 20.1039 4.47197C20.0082 4.62206 19.9448 4.79028 19.9175 4.96603L18.9487 10.3489H13.9371L14.8283 5.4425C14.8636 5.27034 14.8631 5.0928 14.8269 4.92083C14.7907 4.74886 14.7196 4.58609 14.618 4.44254C14.5163 4.29899 14.3863 4.17769 14.2359 4.08612C14.0855 3.99454 13.9178 3.93463 13.7433 3.91006C13.5698 3.86884 13.3896 3.86391 13.2141 3.89557C13.0386 3.92722 12.8715 3.99478 12.7235 4.09398C12.5754 4.19319 12.4496 4.32189 12.3539 4.47197C12.2582 4.62206 12.1948 4.79028 12.1675 4.96603L11.1988 10.3489H5.16667C4.8241 10.3489 4.49555 10.4846 4.25332 10.7261C4.01109 10.9676 3.875 11.2951 3.875 11.6367C3.875 11.9782 4.01109 12.3058 4.25332 12.5473C4.49555 12.7888 4.8241 12.9245 5.16667 12.9245H10.7208L9.77792 18.0755H5.16667C4.8241 18.0755 4.49555 18.2112 4.25332 18.4527C4.01109 18.6942 3.875 19.0218 3.875 19.3633C3.875 19.7049 4.01109 20.0324 4.25332 20.2739C4.49555 20.5154 4.8241 20.6511 5.16667 20.6511H9.31292L8.42167 25.5575C8.38645 25.7297 8.38694 25.9072 8.42312 26.0792C8.4593 26.2511 8.5304 26.4139 8.63203 26.5575C8.73367 26.701 8.8637 26.8223 9.01411 26.9139C9.16453 27.0055 9.33215 27.0654 9.50667 27.0899C9.68019 27.1312 9.86039 27.1361 10.0359 27.1044C10.2114 27.0728 10.3785 27.0052 10.5265 26.906C10.6746 26.8068 10.8004 26.6781 10.8961 26.528C10.9918 26.3779 11.0552 26.2097 11.0825 26.034L12.0512 20.6511H17.0629L16.1717 25.5575C16.1364 25.7297 16.1369 25.9072 16.1731 26.0792C16.2093 26.2511 16.2804 26.4139 16.382 26.5575C16.4837 26.701 16.6137 26.8223 16.7641 26.9139C16.9145 27.0055 17.0822 27.0654 17.2567 27.0899C17.4302 27.1312 17.6104 27.1361 17.7859 27.1044C17.9614 27.0728 18.1285 27.0052 18.2765 26.906C18.4246 26.8068 18.5504 26.6781 18.6461 26.528C18.7418 26.3779 18.8052 26.2097 18.8325 26.034L19.8012 20.6511H25.8333C26.1759 20.6511 26.5044 20.5154 26.7467 20.2739C26.9889 20.0324 27.125 19.7049 27.125 19.3633C27.125 19.0218 26.9889 18.6942 26.7467 18.4527C26.5044 18.2112 26.1759 18.0755 25.8333 18.0755ZM12.5292 18.0755L13.4721 12.9245H18.4708L17.5279 18.0755H12.5292Z" fill="#01008E"/>
</svg>
