<svg width="41" height="40" viewBox="0 0 41 40" fill="none" xmlns="http://www.w3.org/2000/svg">
<path d="M36.8303 31.0414L23.5154 6.31484C22.5717 4.56172 20.0576 4.56172 19.1131 6.31484L5.79902 31.0414C5.59411 31.422 5.49137 31.8492 5.50084 32.2814C5.51032 32.7135 5.63167 33.1358 5.85307 33.507C6.07446 33.8783 6.38832 34.1858 6.76403 34.3995C7.13973 34.6133 7.56443 34.7259 7.99667 34.7266H34.6287C35.0613 34.7266 35.4865 34.6144 35.8627 34.401C36.239 34.1875 36.5534 33.8801 36.7752 33.5087C36.9971 33.1374 37.1188 32.7148 37.1284 32.2823C37.1381 31.8499 37.0353 31.4223 36.8303 31.0414ZM21.3146 30.8984C21.0056 30.8984 20.7035 30.8068 20.4466 30.6351C20.1896 30.4634 19.9893 30.2194 19.8711 29.9339C19.7528 29.6484 19.7219 29.3342 19.7822 29.0311C19.8425 28.728 19.9913 28.4496 20.2098 28.2311C20.4283 28.0126 20.7067 27.8638 21.0098 27.8035C21.3129 27.7432 21.6271 27.7741 21.9126 27.8924C22.1981 28.0106 22.4421 28.2109 22.6138 28.4679C22.7855 28.7248 22.8771 29.0269 22.8771 29.3359C22.8771 29.5411 22.8367 29.7443 22.7582 29.9339C22.6797 30.1235 22.5646 30.2957 22.4195 30.4408C22.2744 30.5859 22.1022 30.701 21.9126 30.7795C21.723 30.858 21.5198 30.8984 21.3146 30.8984ZM23.0115 15.1836L22.5631 24.7148C22.5631 25.0464 22.4314 25.3643 22.197 25.5987C21.9625 25.8331 21.6446 25.9648 21.3131 25.9648C20.9816 25.9648 20.6636 25.8331 20.4292 25.5987C20.1948 25.3643 20.0631 25.0464 20.0631 24.7148L19.6146 15.1875C19.6046 14.9598 19.6404 14.7325 19.7201 14.519C19.7998 14.3055 19.9216 14.1102 20.0783 13.9447C20.2351 13.7793 20.4235 13.6472 20.6324 13.5561C20.8413 13.4651 21.0665 13.417 21.2943 13.4148H21.3107C21.5402 13.4147 21.7672 13.4611 21.9783 13.5511C22.1893 13.6412 22.3799 13.7731 22.5385 13.9388C22.6972 14.1045 22.8206 14.3007 22.9014 14.5154C22.9821 14.7302 23.0185 14.9591 23.0084 15.1883L23.0115 15.1836Z" fill="#FF9B00"/>
</svg>
